<?xml version="1.0" standalone="no"?>
<!DOCTYPE svg PUBLIC "-//W3C//DTD SVG 20010904//EN"
 "http://www.w3.org/TR/2001/REC-SVG-20010904/DTD/svg10.dtd">
<svg version="1.0" xmlns="http://www.w3.org/2000/svg"
 width="142.000000pt" height="134.000000pt" viewBox="0 0 142.000000 134.000000"
 preserveAspectRatio="xMidYMid meet">

<g transform="translate(0.000000,134.000000) scale(0.100000,-0.100000)"
fill="#000000" stroke="none">
<path d="M710 1139 c-30 -10 -57 -23 -61 -27 -4 -4 -25 -71 -47 -149 l-39
-143 243 0 c239 0 244 0 244 20 0 23 26 38 40 24 9 -9 -52 -290 -70 -325 -9
-17 -7 -19 18 -19 36 0 62 -28 62 -67 0 -62 -5 -63 -334 -63 -278 0 -297 1
-294 18 3 16 27 17 293 22 282 5 290 6 290 25 0 19 -8 20 -230 25 -264 6 -271
8 -301 86 l-18 47 -43 -159 c-23 -87 -41 -159 -40 -160 20 -17 146 -70 213
-89 108 -31 135 -31 215 1 132 54 359 175 377 202 14 22 17 51 17 182 l0 157
-30 44 c-49 71 -265 284 -334 328 -71 46 -92 48 -171 20z m-20 -789 c22 -40
-26 -80 -58 -48 -25 25 -6 68 30 68 9 0 22 -9 28 -20z m270 5 c15 -18 10 -45
-12 -59 -35 -22 -74 27 -48 59 16 19 44 19 60 0z"/>
<path d="M546 758 c-9 -37 -8 -38 35 -38 33 0 40 3 35 16 -3 9 -6 22 -6 30 0
9 -11 14 -29 14 -21 0 -30 -6 -35 -22z"/>
<path d="M660 750 c0 -29 2 -30 45 -30 43 0 45 1 45 30 0 29 -2 30 -45 30 -43
0 -45 -1 -45 -30z"/>
<path d="M800 750 c0 -29 2 -30 45 -30 25 0 45 3 45 8 0 4 3 17 6 30 6 21 3
22 -45 22 -50 0 -51 -1 -51 -30z"/>
<path d="M947 773 c-4 -3 -7 -17 -7 -30 0 -22 4 -24 42 -21 36 3 43 7 49 31 7
26 6 27 -35 27 -24 0 -46 -3 -49 -7z"/>
<path d="M552 653 c3 -24 8 -28 41 -31 35 -3 37 -2 37 27 0 30 -2 31 -41 31
-38 0 -40 -1 -37 -27z"/>
<path d="M678 650 c4 -27 8 -30 38 -30 31 0 34 3 34 30 0 28 -2 30 -38 30 -37
0 -38 -1 -34 -30z"/>
<path d="M800 649 c0 -29 2 -30 38 -27 32 3 37 7 40 31 3 26 1 27 -37 27 -39
0 -41 -1 -41 -31z"/>
<path d="M926 664 c-13 -35 -7 -44 33 -44 38 0 51 11 51 46 0 21 -76 19 -84
-2z"/>
<path d="M582 559 c8 -13 27 -26 42 -30 25 -7 27 -5 24 19 -3 24 -8 27 -42 30
-39 3 -39 3 -24 -19z"/>
<path d="M694 558 c3 -13 6 -26 6 -30 0 -5 11 -8 25 -8 21 0 25 5 25 30 0 27
-3 30 -31 30 -28 0 -31 -3 -25 -22z"/>
<path d="M800 550 c0 -27 3 -30 30 -30 27 0 30 3 30 30 0 27 -3 30 -30 30 -27
0 -30 -3 -30 -30z"/>
<path d="M907 553 c-3 -16 -4 -29 -3 -31 8 -7 68 23 77 39 9 17 6 19 -29 19
-35 0 -40 -3 -45 -27z"/>
</g>
</svg>
